# xmcd
#
# Track frame offsets:
# 150
# 17252
# 35022
# 52946
# 68321
# 80044
# 95731
# 112954
# 126973
# 142221
# 159131
# 176411
# 191469
# 204160
# 221396
# 237141
# 255053
# 272380
# 288969
# 304745
#
# Disc length: 4266 seconds
#
#
# Revision: 0
# Processed by: cddbd v1.5.1PL2 Copyright (c) Steve Scherf et al.
# Submitted via: FreeRIP 2.942 
#
DISCID=fd10a814
DTITLE=desconhecido - A melhores do Forro
DYEAR=1900
DGENRE=National Folk
TTITLE0=AMOR DE RAPARIGA
TTITLE1=RESPOSTA DA RAPARIGA
TTITLE2=XEQUE MATE
TTITLE3=LUZ, CÂMERA, AÇÃO
TTITLE4=ALAQUITANGA
TTITLE5=EU VOU TE DAR
TTITLE6=CARTA BRANCA
TTITLE7=MORENA LINDA
TTITLE8=PÉTALAS DE NÉON
TTITLE9=ELA CHOROU DE AMOR
TTITLE10=MELHOR É VIVER
TTITLE11=AMOREMIO
TTITLE12=LEILÃO
TTITLE13=POR QUE TE AMO
TTITLE14=AMOR DA MINHA VIDA
TTITLE15=O ENCONTRO
TTITLE16=NEM VEM QUE NÃO TEM
TTITLE17=CORAÇÃO TURISTA
TTITLE18=ANA MARIA
TTITLE19=NAMORO NA INTERNET
EXTD=
EXTT0=
EXTT1=
EXTT2=
EXTT3=
EXTT4=
EXTT5=
EXTT6=
EXTT7=
EXTT8=
EXTT9=
EXTT10=
EXTT11=
EXTT12=
EXTT13=
EXTT14=
EXTT15=
EXTT16=
EXTT17=
EXTT18=
EXTT19=
PLAYORDER=
